<svg width="377.36" height="59.68" viewBox="0 0 377.36 59.68" xmlns="http://www.w3.org/2000/svg"><g id="svgGroup" stroke-linecap="round" fill-rule="evenodd" font-size="9pt" stroke="#00000077" stroke-width="0.25mm" fill="#ffffff" style="stroke:#00000077;stroke-width:0.25mm;fill:#ffffff"><path d="M 224.8 58.88 L 214.48 58.88 L 202.64 36.64 Q 198.96 36.8 196.08 36.8 L 193.84 36.8 L 193.84 58.88 L 185.12 58.88 L 185.12 0.08 L 198.48 0.08 Q 207.003 0.08 212.992 3.036 A 22.807 22.807 0 0 1 215.2 4.28 Q 221.76 8.48 221.76 17.92 A 21.269 21.269 0 0 1 221.159 23.09 A 16.667 16.667 0 0 1 219 28.12 A 16.452 16.452 0 0 1 213.794 33.17 A 21.715 21.715 0 0 1 210.8 34.72 L 224.8 58.88 Z M 28.16 0 L 29.04 0 L 57.36 58.88 L 47.04 58.88 L 42 47.36 L 15.04 47.36 L 10 58.88 L 0 58.88 L 28.16 0 Z M 275.92 58.88 L 275.92 22.16 L 284.4 22.16 L 284.48 28.88 A 12.803 12.803 0 0 1 288.877 23.635 A 15.363 15.363 0 0 1 289.28 23.36 A 13.104 13.104 0 0 1 295.154 21.296 A 16.601 16.601 0 0 1 296.96 21.2 Q 300.749 21.2 303.363 22.25 A 9.569 9.569 0 0 1 305.68 23.56 A 10.982 10.982 0 0 1 309.209 28.395 A 14.478 14.478 0 0 1 309.76 30.16 Q 310.459 33.009 310.688 37.013 A 73.459 73.459 0 0 1 310.8 41.2 L 310.8 58.88 L 302.16 58.88 L 302.16 41.44 Q 302.16 34.48 300.8 31.4 Q 299.452 28.346 295.272 28.32 A 11.577 11.577 0 0 0 295.2 28.32 A 8.53 8.53 0 0 0 292.188 28.891 A 11.615 11.615 0 0 0 290.32 29.8 Q 287.84 31.28 286.2 34.08 Q 284.56 36.88 284.56 40.64 L 284.56 58.88 L 275.92 58.88 Z M 120.96 58.88 L 134.72 39.84 L 121.84 22.16 L 132.08 22.16 L 139.6 33.52 L 146.72 22.16 L 157.2 22.16 L 144.24 39.36 L 158.32 58.88 L 148.4 58.88 L 139.68 45.92 L 131.36 58.88 L 120.96 58.88 Z M 345.28 58.88 L 362 31.92 L 364 29.04 L 355.12 29.28 L 348.8 29.28 L 348.8 22.16 L 377.36 22.16 L 360.8 49.2 L 358.8 52.24 L 367.44 51.92 L 376.72 51.76 L 376.72 58.88 L 345.28 58.88 Z M 116.48 43.52 L 90.08 43.52 Q 90.96 48.4 93.56 50.56 Q 96.16 52.72 100.8 52.72 Q 103.498 52.72 105.525 52.404 A 16.677 16.677 0 0 0 107.12 52.08 Q 109.6 51.44 111.68 50.32 L 114.32 56.48 Q 112.867 57.41 110.654 58.171 A 31.5 31.5 0 0 1 108.88 58.72 A 23.79 23.79 0 0 1 105.721 59.359 Q 104.112 59.58 102.276 59.649 A 45.769 45.769 0 0 1 100.56 59.68 A 27.424 27.424 0 0 1 95.765 59.283 Q 92.989 58.79 90.722 57.684 A 16.006 16.006 0 0 1 89.6 57.08 A 16.495 16.495 0 0 1 84.779 52.851 A 15.658 15.658 0 0 1 83.12 50.12 A 21.608 21.608 0 0 1 81.065 41.687 A 25.338 25.338 0 0 1 81.04 40.56 A 23.649 23.649 0 0 1 81.631 35.16 A 18.722 18.722 0 0 1 83.48 30.32 Q 85.92 25.92 90.24 23.56 A 19.405 19.405 0 0 1 97.998 21.283 A 23.724 23.724 0 0 1 100 21.2 A 24.385 24.385 0 0 1 104.763 21.634 Q 107.521 22.184 109.631 23.431 A 12.18 12.18 0 0 1 112.6 25.88 A 15.408 15.408 0 0 1 115.753 31.717 Q 116.448 34.028 116.644 36.8 A 31.866 31.866 0 0 1 116.72 39.04 A 42.628 42.628 0 0 1 116.562 42.656 A 47.88 47.88 0 0 1 116.48 43.52 Z M 266.64 43.52 L 240.24 43.52 Q 241.12 48.4 243.72 50.56 Q 246.32 52.72 250.96 52.72 Q 253.658 52.72 255.685 52.404 A 16.677 16.677 0 0 0 257.28 52.08 Q 259.76 51.44 261.84 50.32 L 264.48 56.48 Q 263.027 57.41 260.814 58.171 A 31.5 31.5 0 0 1 259.04 58.72 A 23.79 23.79 0 0 1 255.881 59.359 Q 254.272 59.58 252.436 59.649 A 45.769 45.769 0 0 1 250.72 59.68 A 27.424 27.424 0 0 1 245.925 59.283 Q 243.149 58.79 240.882 57.684 A 16.006 16.006 0 0 1 239.76 57.08 A 16.495 16.495 0 0 1 234.939 52.851 A 15.658 15.658 0 0 1 233.28 50.12 A 21.608 21.608 0 0 1 231.225 41.687 A 25.338 25.338 0 0 1 231.2 40.56 A 23.649 23.649 0 0 1 231.791 35.16 A 18.722 18.722 0 0 1 233.64 30.32 Q 236.08 25.92 240.4 23.56 A 19.405 19.405 0 0 1 248.158 21.283 A 23.724 23.724 0 0 1 250.16 21.2 A 24.385 24.385 0 0 1 254.923 21.634 Q 257.681 22.184 259.791 23.431 A 12.18 12.18 0 0 1 262.76 25.88 A 15.408 15.408 0 0 1 265.913 31.717 Q 266.608 34.028 266.804 36.8 A 31.866 31.866 0 0 1 266.88 39.04 A 42.628 42.628 0 0 1 266.722 42.656 A 47.88 47.88 0 0 1 266.64 43.52 Z M 325.12 58.88 L 325.12 29.2 L 318.64 29.2 L 318.64 22.16 L 325.12 22.16 L 325.12 7.2 L 333.84 5.28 L 333.84 22.16 L 342.32 22.16 L 342.32 29.2 L 333.84 29.2 L 333.84 58.88 L 325.12 58.88 Z M 62.48 58.88 L 62.48 0.08 L 71.04 0.08 L 71.04 58.88 L 62.48 58.88 Z M 193.84 29.52 L 199.52 29.52 Q 207.36 29.52 210.28 26.12 A 12.024 12.024 0 0 0 213.199 18.147 A 15.162 15.162 0 0 0 213.2 18 Q 213.2 7.52 199.2 7.52 L 193.84 7.52 L 193.84 29.52 Z M 28.56 17.04 L 25.04 25.04 L 18.64 39.28 L 38.48 39.28 L 32.16 25.12 L 28.72 17.04 L 28.56 17.04 Z M 90.08 37.52 L 108.32 37.52 Q 108.367 34.585 107.602 32.673 A 5.735 5.735 0 0 0 106.16 30.52 Q 104.26 28.789 100.978 28.527 A 15.282 15.282 0 0 0 99.76 28.48 A 11.405 11.405 0 0 0 95.806 29.115 Q 92.441 30.354 90.977 34.006 A 15.15 15.15 0 0 0 90.08 37.52 Z M 240.24 37.52 L 258.48 37.52 Q 258.527 34.585 257.762 32.673 A 5.735 5.735 0 0 0 256.32 30.52 Q 254.42 28.789 251.138 28.527 A 15.282 15.282 0 0 0 249.92 28.48 A 11.405 11.405 0 0 0 245.966 29.115 Q 242.601 30.354 241.137 34.006 A 15.15 15.15 0 0 0 240.24 37.52 Z" vector-effect="non-scaling-stroke"/></g></svg>